<svg id="visual" viewBox="0 0 960 540" width="960" height="540" xmlns="http://www.w3.org/2000/svg" xmlns:xlink="http://www.w3.org/1999/xlink" version="1.1">
  <rect x="0" y="0" width="960" height="540" fill="#987e6b"></rect>
  
  <path d="M0 379L22.8 372.8C45.7 366.7 91.3 354.3 137 351.5C182.7 348.7 228.3 355.3 274 356C319.7 356.7 365.3 351.3 411.2 355.2C457 359 503 372 548.8 378.3C594.7 384.7 640.3 384.3 686 376.8C731.7 369.3 777.3 354.7 823 350.2C868.7 345.7 914.3 351.3 937.2 354.2L960 357L960 541L937.2 541C914.3 541 868.7 541 823 541C777.3 541 731.7 541 686 541C640.3 541 594.7 541 548.8 541C503 541 457 541 411.2 541C365.3 541 319.7 541 274 541C228.3 541 182.7 541 137 541C91.3 541 45.7 541 22.8 541L0 541Z" fill="#eccd99">
  </path>
  <path d="M0 425L22.8 425C45.7 425 91.3 425 137 420.8C182.7 416.7 228.3 408.3 274 405.5C319.7 402.7 365.3 405.3 411.2 401.2C457 397 503 386 548.8 385.2C594.7 384.3 640.3 393.7 686 392C731.7 390.3 777.3 377.7 823 374.7C868.7 371.7 914.3 378.3 937.2 381.7L960 385L960 541L937.2 541C914.3 541 868.7 541 823 541C777.3 541 731.7 541 686 541C640.3 541 594.7 541 548.8 541C503 541 457 541 411.2 541C365.3 541 319.7 541 274 541C228.3 541 182.7 541 137 541C91.3 541 45.7 541 22.8 541L0 541Z" fill="#f0c488">
  </path>
  <path d="M0 421L22.8 425.7C45.7 430.3 91.3 439.7 137 435.2C182.7 430.7 228.3 412.3 274 413.7C319.7 415 365.3 436 411.2 441.5C457 447 503 437 548.8 426.7C594.7 416.3 640.3 405.7 686 410.7C731.7 415.7 777.3 436.3 823 439.3C868.7 442.3 914.3 427.7 937.2 420.3L960 413L960 541L937.2 541C914.3 541 868.7 541 823 541C777.3 541 731.7 541 686 541C640.3 541 594.7 541 548.8 541C503 541 457 541 411.2 541C365.3 541 319.7 541 274 541C228.3 541 182.7 541 137 541C91.3 541 45.7 541 22.8 541L0 541Z" fill="#f4ba78">
  </path>
  <path d="M0 469L22.8 467.2C45.7 465.3 91.3 461.7 137 462C182.7 462.3 228.3 466.7 274 465C319.7 463.3 365.3 455.7 411.2 452C457 448.3 503 448.7 548.8 453.3C594.7 458 640.3 467 686 470.3C731.7 473.7 777.3 471.3 823 468.3C868.7 465.3 914.3 461.7 937.2 459.8L960 458L960 541L937.2 541C914.3 541 868.7 541 823 541C777.3 541 731.7 541 686 541C640.3 541 594.7 541 548.8 541C503 541 457 541 411.2 541C365.3 541 319.7 541 274 541C228.3 541 182.7 541 137 541C91.3 541 45.7 541 22.8 541L0 541Z" fill="#f9af6a">
  </path>
  <path d="M0 507L22.8 507.5C45.7 508 91.3 509 137 507.2C182.7 505.3 228.3 500.7 274 500.8C319.7 501 365.3 506 411.2 502C457 498 503 485 548.8 479.2C594.7 473.3 640.3 474.7 686 475.7C731.7 476.7 777.3 477.3 823 483.7C868.7 490 914.3 502 937.2 508L960 514L960 541L937.2 541C914.3 541 868.7 541 823 541C777.3 541 731.7 541 686 541C640.3 541 594.7 541 548.8 541C503 541 457 541 411.2 541C365.3 541 319.7 541 274 541C228.3 541 182.7 541 137 541C91.3 541 45.7 541 22.8 541L0 541Z" fill="#fea35e">
  </path>
</svg>