<svg xmlns="http://www.w3.org/2000/svg" version="1.1" xmlns:xlink="http://www.w3.org/1999/xlink" xmlns:svgjs="http://svgjs.dev/svgjs" viewBox="0 0 800 800" opacity="1"><defs><linearGradient x1="50%" y1="0%" x2="50%" y2="100%" id="ggglitch-grad"><stop stop-color="#151515ff" stop-opacity="1" offset="45%"></stop><stop stop-color="#333333ff" stop-opacity="1" offset="100%"></stop></linearGradient><clipPath id="SvgjsClipPath2186"><rect width="133.33333333333334" height="800" x="0" y="0"></rect><rect width="133.33333333333334" height="800" x="266.6666666666667" y="0"></rect><rect width="133.33333333333334" height="800" x="533.3333333333334" y="0"></rect><rect width="133.33333333333334" height="800" x="800" y="0"></rect><rect width="133.33333333333334" height="800" x="1066.6666666666667" y="0"></rect><rect width="133.33333333333334" height="800" x="1333.3333333333335" y="0"></rect><rect width="133.33333333333334" height="800" x="1600" y="0"></rect></clipPath><clipPath id="SvgjsClipPath2187"><rect width="133.33333333333334" height="800" x="133.33333333333334" y="0"></rect><rect width="133.33333333333334" height="800" x="400" y="0"></rect><rect width="133.33333333333334" height="800" x="666.6666666666666" y="0"></rect><rect width="133.33333333333334" height="800" x="933.3333333333334" y="0"></rect><rect width="133.33333333333334" height="800" x="1200.0000000000002" y="0"></rect><rect width="133.33333333333334" height="800" x="1466.6666666666667" y="0"></rect></clipPath></defs><g stroke-width="61" stroke="url(#ggglitch-grad)" fill="none"><polygon points="-30.5,30.5 30.5,-30.5 830.5,769.5 769.5,830.5" stroke="none" fill="url(#ggglitch-grad)" clip-path="url(&quot;#SvgjsClipPath2186&quot;)" opacity="0.91" transform="translate(0 13)"></polygon><polygon points="-30.5,30.5 30.5,-30.5 830.5,769.5 769.5,830.5" stroke="none" fill="url(#ggglitch-grad)" clip-path="url(&quot;#SvgjsClipPath2187&quot;)"></polygon><polygon points="769.5,-30.5 830.5,30.5 30.5,830.5 -30.5,769.5" stroke="none" fill="url(#ggglitch-grad)" clip-path="url(&quot;#SvgjsClipPath2186&quot;)" opacity="0.91" transform="translate(0 13)"></polygon><polygon points="769.5,-30.5 830.5,30.5 30.5,830.5 -30.5,769.5" stroke="none" fill="url(#ggglitch-grad)" clip-path="url(&quot;#SvgjsClipPath2187&quot;)"></polygon></g></svg>