<svg
  id="visual"
  viewBox="0 0 960 540"
  width="960"
  height="540"
  xmlns="http://www.w3.org/2000/svg"
  xmlns:xlink="http://www.w3.org/1999/xlink"
  version="1.1"
>
  <rect
    x="0"
    y="0"
    width="960"
    height="540"
    fill="#987e6b"
  >
  </rect>

  <!-- Wave form one -->
  <path
    id='waveFormOne-a'
    d="M0 379L22.8 372.8C45.7 366.7 91.3 354.3 137 351.5C182.7 348.7 228.3 355.3 274 356C319.7 356.7 365.3 351.3 411.2 355.2C457 359 503 372 548.8 378.3C594.7 384.7 640.3 384.3 686 376.8C731.7 369.3 777.3 354.7 823 350.2C868.7 345.7 914.3 351.3 937.2 354.2L960 357L960 541L937.2 541C914.3 541 868.7 541 823 541C777.3 541 731.7 541 686 541C640.3 541 594.7 541 548.8 541C503 541 457 541 411.2 541C365.3 541 319.7 541 274 541C228.3 541 182.7 541 137 541C91.3 541 45.7 541 22.8 541L0 541Z"
    fill="#eccd99"
  >
  </path>

  <path
    id='waveFormOne-b'
    d="M0 385L14.5 385.8C29 386.7 58 388.3 87.2 389.7C116.3 391 145.7 392 174.8 387.7C204 383.3 233 373.7 262 367.5C291 361.3 320 358.7 349 362.7C378 366.7 407 377.3 436.2 380.5C465.3 383.7 494.7 379.3 523.8 375.3C553 371.3 582 367.7 611 358.3C640 349 669 334 698 334.5C727 335 756 351 785.2 359.3C814.3 367.7 843.7 368.3 872.8 371.3C902 374.3 931 379.7 945.5 382.3L960 385L960 541L945.5 541C931 541 902 541 872.8 541C843.7 541 814.3 541 785.2 541C756 541 727 541 698 541C669 541 640 541 611 541C582 541 553 541 523.8 541C494.7 541 465.3 541 436.2 541C407 541 378 541 349 541C320 541 291 541 262 541C233 541 204 541 174.8 541C145.7 541 116.3 541 87.2 541C58 541 29 541 14.5 541L0 541Z"
    fill="#eccd99"
  >
  </path>


  <!-- Wave form two -->
  <path
    id='waveFormTwo-a'
    d="M0 425L22.8 425C45.7 425 91.3 425 137 420.8C182.7 416.7 228.3 408.3 274 405.5C319.7 402.7 365.3 405.3 411.2 401.2C457 397 503 386 548.8 385.2C594.7 384.3 640.3 393.7 686 392C731.7 390.3 777.3 377.7 823 374.7C868.7 371.7 914.3 378.3 937.2 381.7L960 385L960 541L937.2 541C914.3 541 868.7 541 823 541C777.3 541 731.7 541 686 541C640.3 541 594.7 541 548.8 541C503 541 457 541 411.2 541C365.3 541 319.7 541 274 541C228.3 541 182.7 541 137 541C91.3 541 45.7 541 22.8 541L0 541Z" fill="#f0c488"
  >
  </path>

  <path
    id='waveFormTwo-b'
    d="M0 392L14.5 395.7C29 399.3 58 406.7 87.2 404.3C116.3 402 145.7 390 174.8 384.8C204 379.7 233 381.3 262 389.3C291 397.3 320 411.7 349 416.8C378 422 407 418 436.2 414.7C465.3 411.3 494.7 408.7 523.8 408.3C553 408 582 410 611 401.3C640 392.7 669 373.3 698 374.3C727 375.3 756 396.7 785.2 409.3C814.3 422 843.7 426 872.8 418.2C902 410.3 931 390.7 945.5 380.8L960 371L960 541L945.5 541C931 541 902 541 872.8 541C843.7 541 814.3 541 785.2 541C756 541 727 541 698 541C669 541 640 541 611 541C582 541 553 541 523.8 541C494.7 541 465.3 541 436.2 541C407 541 378 541 349 541C320 541 291 541 262 541C233 541 204 541 174.8 541C145.7 541 116.3 541 87.2 541C58 541 29 541 14.5 541L0 541Z"
    fill="#f0c488"
  >
  </path>

  <!-- Wave form three -->
  <path
    id='waveFormThree-a'
    d="M0 421L22.8 425.7C45.7 430.3 91.3 439.7 137 435.2C182.7 430.7 228.3 412.3 274 413.7C319.7 415 365.3 436 411.2 441.5C457 447 503 437 548.8 426.7C594.7 416.3 640.3 405.7 686 410.7C731.7 415.7 777.3 436.3 823 439.3C868.7 442.3 914.3 427.7 937.2 420.3L960 413L960 541L937.2 541C914.3 541 868.7 541 823 541C777.3 541 731.7 541 686 541C640.3 541 594.7 541 548.8 541C503 541 457 541 411.2 541C365.3 541 319.7 541 274 541C228.3 541 182.7 541 137 541C91.3 541 45.7 541 22.8 541L0 541Z" 
    fill="#f4ba78"
  >
  </path>

  <path
    id='waveFormThree-b'
    d="M0 406L14.5 411C29 416 58 426 87.2 425.5C116.3 425 145.7 414 174.8 416C204 418 233 433 262 434.8C291 436.7 320 425.3 349 422.2C378 419 407 424 436.2 423C465.3 422 494.7 415 523.8 410.8C553 406.7 582 405.3 611 411.2C640 417 669 430 698 437.2C727 444.3 756 445.7 785.2 447.3C814.3 449 843.7 451 872.8 446.3C902 441.7 931 430.3 945.5 424.7L960 419L960 541L945.5 541C931 541 902 541 872.8 541C843.7 541 814.3 541 785.2 541C756 541 727 541 698 541C669 541 640 541 611 541C582 541 553 541 523.8 541C494.7 541 465.3 541 436.2 541C407 541 378 541 349 541C320 541 291 541 262 541C233 541 204 541 174.8 541C145.7 541 116.3 541 87.2 541C58 541 29 541 14.5 541L0 541Z"
    fill="#f4ba78"
  >
  </path>


  <!-- Wave form four -->
  <path
    id='waveFormFour-a'
    d="M0 469L22.8 467.2C45.7 465.3 91.3 461.7 137 462C182.7 462.3 228.3 466.7 274 465C319.7 463.3 365.3 455.7 411.2 452C457 448.3 503 448.7 548.8 453.3C594.7 458 640.3 467 686 470.3C731.7 473.7 777.3 471.3 823 468.3C868.7 465.3 914.3 461.7 937.2 459.8L960 458L960 541L937.2 541C914.3 541 868.7 541 823 541C777.3 541 731.7 541 686 541C640.3 541 594.7 541 548.8 541C503 541 457 541 411.2 541C365.3 541 319.7 541 274 541C228.3 541 182.7 541 137 541C91.3 541 45.7 541 22.8 541L0 541Z" 
    fill="#f9af6a"
  >
  </path>

  <path
    id='waveFormFour-b'
    d="M0 462L14.5 465.2C29 468.3 58 474.7 87.2 470.8C116.3 467 145.7 453 174.8 447C204 441 233 443 262 446.2C291 449.3 320 453.7 349 456.5C378 459.3 407 460.7 436.2 464.3C465.3 468 494.7 474 523.8 472.7C553 471.3 582 462.7 611 456.2C640 449.7 669 445.3 698 450.5C727 455.7 756 470.3 785.2 476.8C814.3 483.3 843.7 481.7 872.8 474.5C902 467.3 931 454.7 945.5 448.3L960 442L960 541L945.5 541C931 541 902 541 872.8 541C843.7 541 814.3 541 785.2 541C756 541 727 541 698 541C669 541 640 541 611 541C582 541 553 541 523.8 541C494.7 541 465.3 541 436.2 541C407 541 378 541 349 541C320 541 291 541 262 541C233 541 204 541 174.8 541C145.7 541 116.3 541 87.2 541C58 541 29 541 14.5 541L0 541Z"
    fill="#f9af6a"
  >
  </path>


  <!-- Wave form five -->
  <path
    id='waveFormFive-a'
    d="M0 507L22.8 507.5C45.7 508 91.3 509 137 507.2C182.7 505.3 228.3 500.7 274 500.8C319.7 501 365.3 506 411.2 502C457 498 503 485 548.8 479.2C594.7 473.3 640.3 474.7 686 475.7C731.7 476.7 777.3 477.3 823 483.7C868.7 490 914.3 502 937.2 508L960 514L960 541L937.2 541C914.3 541 868.7 541 823 541C777.3 541 731.7 541 686 541C640.3 541 594.7 541 548.8 541C503 541 457 541 411.2 541C365.3 541 319.7 541 274 541C228.3 541 182.7 541 137 541C91.3 541 45.7 541 22.8 541L0 541Z" 
    fill="#fea35e"
  >
  </path>

  <path
    id='waveFormFive-b'
    d="M0 479L14.5 483.2C29 487.3 58 495.7 87.2 501.3C116.3 507 145.7 510 174.8 511.8C204 513.7 233 514.3 262 513.8C291 513.3 320 511.7 349 504.5C378 497.3 407 484.7 436.2 482.3C465.3 480 494.7 488 523.8 491.7C553 495.3 582 494.7 611 493.8C640 493 669 492 698 494.8C727 497.7 756 504.3 785.2 503.8C814.3 503.3 843.7 495.7 872.8 493.3C902 491 931 494 945.5 495.5L960 497L960 541L945.5 541C931 541 902 541 872.8 541C843.7 541 814.3 541 785.2 541C756 541 727 541 698 541C669 541 640 541 611 541C582 541 553 541 523.8 541C494.7 541 465.3 541 436.2 541C407 541 378 541 349 541C320 541 291 541 262 541C233 541 204 541 174.8 541C145.7 541 116.3 541 87.2 541C58 541 29 541 14.5 541L0 541Z"
    fill="#fea35e"
  >
  </path>
</svg>