<svg id="visual" viewBox="0 0 960 540" width="960" height="540" xmlns="http://www.w3.org/2000/svg" xmlns:xlink="http://www.w3.org/1999/xlink" version="1.1">
  <rect x="0" y="0" width="960" height="540" fill="#987e6b"></rect>
  
  <path d="M0 385L14.5 385.8C29 386.7 58 388.3 87.2 389.7C116.3 391 145.7 392 174.8 387.7C204 383.3 233 373.7 262 367.5C291 361.3 320 358.7 349 362.7C378 366.7 407 377.3 436.2 380.5C465.3 383.7 494.7 379.3 523.8 375.3C553 371.3 582 367.7 611 358.3C640 349 669 334 698 334.5C727 335 756 351 785.2 359.3C814.3 367.7 843.7 368.3 872.8 371.3C902 374.3 931 379.7 945.5 382.3L960 385L960 541L945.5 541C931 541 902 541 872.8 541C843.7 541 814.3 541 785.2 541C756 541 727 541 698 541C669 541 640 541 611 541C582 541 553 541 523.8 541C494.7 541 465.3 541 436.2 541C407 541 378 541 349 541C320 541 291 541 262 541C233 541 204 541 174.8 541C145.7 541 116.3 541 87.2 541C58 541 29 541 14.5 541L0 541Z" fill="#eccd99">
  </path>
  <path d="M0 392L14.5 395.7C29 399.3 58 406.7 87.2 404.3C116.3 402 145.7 390 174.8 384.8C204 379.7 233 381.3 262 389.3C291 397.3 320 411.7 349 416.8C378 422 407 418 436.2 414.7C465.3 411.3 494.7 408.7 523.8 408.3C553 408 582 410 611 401.3C640 392.7 669 373.3 698 374.3C727 375.3 756 396.7 785.2 409.3C814.3 422 843.7 426 872.8 418.2C902 410.3 931 390.7 945.5 380.8L960 371L960 541L945.5 541C931 541 902 541 872.8 541C843.7 541 814.3 541 785.2 541C756 541 727 541 698 541C669 541 640 541 611 541C582 541 553 541 523.8 541C494.7 541 465.3 541 436.2 541C407 541 378 541 349 541C320 541 291 541 262 541C233 541 204 541 174.8 541C145.7 541 116.3 541 87.2 541C58 541 29 541 14.5 541L0 541Z" fill="#f0c488">
  </path>
  <path d="M0 406L14.5 411C29 416 58 426 87.2 425.5C116.3 425 145.7 414 174.8 416C204 418 233 433 262 434.8C291 436.7 320 425.3 349 422.2C378 419 407 424 436.2 423C465.3 422 494.7 415 523.8 410.8C553 406.7 582 405.3 611 411.2C640 417 669 430 698 437.2C727 444.3 756 445.7 785.2 447.3C814.3 449 843.7 451 872.8 446.3C902 441.7 931 430.3 945.5 424.7L960 419L960 541L945.5 541C931 541 902 541 872.8 541C843.7 541 814.3 541 785.2 541C756 541 727 541 698 541C669 541 640 541 611 541C582 541 553 541 523.8 541C494.7 541 465.3 541 436.2 541C407 541 378 541 349 541C320 541 291 541 262 541C233 541 204 541 174.8 541C145.7 541 116.3 541 87.2 541C58 541 29 541 14.5 541L0 541Z" fill="#f4ba78">
  </path>
  <path d="M0 462L14.5 465.2C29 468.3 58 474.7 87.2 470.8C116.3 467 145.7 453 174.8 447C204 441 233 443 262 446.2C291 449.3 320 453.7 349 456.5C378 459.3 407 460.7 436.2 464.3C465.3 468 494.7 474 523.8 472.7C553 471.3 582 462.7 611 456.2C640 449.7 669 445.3 698 450.5C727 455.7 756 470.3 785.2 476.8C814.3 483.3 843.7 481.7 872.8 474.5C902 467.3 931 454.7 945.5 448.3L960 442L960 541L945.5 541C931 541 902 541 872.8 541C843.7 541 814.3 541 785.2 541C756 541 727 541 698 541C669 541 640 541 611 541C582 541 553 541 523.8 541C494.7 541 465.3 541 436.2 541C407 541 378 541 349 541C320 541 291 541 262 541C233 541 204 541 174.8 541C145.7 541 116.3 541 87.2 541C58 541 29 541 14.5 541L0 541Z" fill="#f9af6a">
  </path>
  <path d="M0 479L14.5 483.2C29 487.3 58 495.7 87.2 501.3C116.3 507 145.7 510 174.8 511.8C204 513.7 233 514.3 262 513.8C291 513.3 320 511.7 349 504.5C378 497.3 407 484.7 436.2 482.3C465.3 480 494.7 488 523.8 491.7C553 495.3 582 494.7 611 493.8C640 493 669 492 698 494.8C727 497.7 756 504.3 785.2 503.8C814.3 503.3 843.7 495.7 872.8 493.3C902 491 931 494 945.5 495.5L960 497L960 541L945.5 541C931 541 902 541 872.8 541C843.7 541 814.3 541 785.2 541C756 541 727 541 698 541C669 541 640 541 611 541C582 541 553 541 523.8 541C494.7 541 465.3 541 436.2 541C407 541 378 541 349 541C320 541 291 541 262 541C233 541 204 541 174.8 541C145.7 541 116.3 541 87.2 541C58 541 29 541 14.5 541L0 541Z" fill="#fea35e">
  </path>
</svg>